<svg width="30" height="30" viewBox="0 0 30 30" fill="none" xmlns="http://www.w3.org/2000/svg">
<path d="M26.255 2.505H3.755C3.09257 2.50698 2.45784 2.77101 1.98942 3.23942C1.52101 3.70784 1.25698 4.34257 1.255 5.00501V20.005C1.25698 20.6674 1.52101 21.3022 1.98942 21.7706C2.45784 22.239 3.09257 22.503 3.755 22.505H12.505V25.005H10.005V27.505H20.005V25.005H17.505V22.505H26.255C26.9174 22.503 27.5522 22.239 28.0206 21.7706C28.489 21.3022 28.753 20.6674 28.755 20.005V5.00501C28.753 4.34257 28.489 3.70784 28.0206 3.23942C27.5522 2.77101 26.9174 2.50698 26.255 2.505ZM13.445 17.0875L7.50626 11.15L9.27501 9.38376L13.445 13.5538L20.7388 6.25875L22.5075 8.02751L13.445 17.0875Z" fill="#0FA958"/>
</svg>
