<svg width="25" height="21" viewBox="0 0 25 21" fill="none" xmlns="http://www.w3.org/2000/svg">
<path d="M23.0556 20.3923L14.3056 13.255C13.6111 13.7081 12.8125 14.0669 11.9097 14.3312C11.0069 14.5956 10.0463 14.7277 9.02778 14.7277C6.50463 14.7277 4.36944 14.0148 2.62222 12.5888C0.875 11.1629 0.000925926 9.42123 0 7.36387C0 5.30577 0.874074 3.56412 2.62222 2.13892C4.37037 0.713729 6.50556 0.000755269 9.02778 0C11.5509 0 13.6861 0.712974 15.4333 2.13892C17.1806 3.56487 18.0546 5.30652 18.0556 7.36387C18.0556 8.19467 17.8935 8.97826 17.5694 9.71465C17.2454 10.451 16.8056 11.1025 16.25 11.6689L25 18.8062L23.0556 20.3923ZM9.02778 12.4619C10.7639 12.4619 12.2398 11.9661 13.4556 10.9744C14.6713 9.98277 15.2787 8.77925 15.2778 7.36387C15.2778 5.94774 14.6699 4.74385 13.4542 3.75218C12.2384 2.76051 10.763 2.26505 9.02778 2.26581C7.29167 2.26581 5.81574 2.76164 4.6 3.75331C3.38426 4.74498 2.77685 5.9485 2.77778 7.36387C2.77778 8.78 3.38565 9.9839 4.60139 10.9756C5.81713 11.9672 7.29259 12.4627 9.02778 12.4619Z" fill="black" fill-opacity="0.67"/>
</svg>
