<svg width="33" height="31" viewBox="0 0 33 31" fill="none" xmlns="http://www.w3.org/2000/svg">
<path d="M14.85 23.25H18.15V17.05H24.75V13.95H18.15V7.75H14.85V13.95H8.25V17.05H14.85V23.25ZM16.5 31C14.2175 31 12.0725 30.5929 10.065 29.7786C8.0575 28.9643 6.31125 27.8602 4.82625 26.4662C3.34125 25.0712 2.1659 23.4308 1.3002 21.545C0.4345 19.6592 0.0011 17.6442 0 15.5C0 13.3558 0.4334 11.3408 1.3002 9.455C2.167 7.56917 3.34235 5.92875 4.82625 4.53375C6.31125 3.13875 8.0575 2.03463 10.065 1.2214C12.0725 0.408167 14.2175 0.00103333 16.5 0C18.7825 0 20.9275 0.407133 22.935 1.2214C24.9425 2.03567 26.6887 3.13978 28.1737 4.53375C29.6587 5.92875 30.8346 7.56917 31.7014 9.455C32.5682 11.3408 33.0011 13.3558 33 15.5C33 17.6442 32.5666 19.6592 31.6998 21.545C30.833 23.4308 29.6576 25.0712 28.1737 26.4662C26.6887 27.8612 24.9425 28.9659 22.935 29.7801C20.9275 30.5944 18.7825 31.001 16.5 31ZM16.5 27.9C20.185 27.9 23.3062 26.6987 25.8637 24.2962C28.4212 21.8937 29.7 18.9617 29.7 15.5C29.7 12.0383 28.4212 9.10625 25.8637 6.70375C23.3062 4.30125 20.185 3.1 16.5 3.1C12.815 3.1 9.69375 4.30125 7.13625 6.70375C4.57875 9.10625 3.3 12.0383 3.3 15.5C3.3 18.9617 4.57875 21.8937 7.13625 24.2962C9.69375 26.6987 12.815 27.9 16.5 27.9Z" fill="#EAB327"/>
</svg>
